<svg width="26" height="22" viewBox="0 0 26 22" fill="none" xmlns="http://www.w3.org/2000/svg">
<path d="M3.0376 7.51465C2.58936 5.80957 3.26611 4.66699 4.97998 4.20117L18.6821 0.518555C20.4048 0.0615234 21.5825 0.685547 22.022 2.39062L22.2856 3.41016C22.5317 4.3418 22.0923 5.13281 21.1255 5.3877L12.8374 7.61133H21.7407C22.7427 7.61133 23.3667 8.24414 23.3667 9.21973V17.5869C23.3667 19.3535 22.4438 20.2852 20.6421 20.2852H6.45654C4.66357 20.2852 3.72314 19.3623 3.72314 17.5869V10.0283L3.0376 7.51465ZM16.23 5.31738L18.8491 4.61426L19.4556 1.99512C19.2446 2.03906 19.0425 2.08301 18.8228 2.14453L16.854 2.68945L16.23 5.31738ZM10.8862 6.75L13.6636 6.01172L14.2876 3.375L11.5103 4.11328L10.8862 6.75ZM5.70068 8.13867L8.31982 7.43555L8.92627 4.79883L6.3335 5.51074L5.70068 8.13867ZM6.13135 11.6982H8.82959L10.1479 9.29004H9.55029L7.39697 9.37793L6.13135 11.6982ZM11.5015 11.6982H14.3667L15.6851 9.29004H12.811L11.5015 11.6982ZM17.0386 11.6982H19.7368L21.0464 9.29004H18.3481L17.0386 11.6982ZM5.35791 17.4463C5.35791 18.2461 5.77979 18.6504 6.55322 18.6504H20.5454C21.3101 18.6504 21.7407 18.2461 21.7407 17.4463V13.1133H5.35791V17.4463Z" fill="white"/>
</svg>
