<svg width="24" height="19" viewBox="0 0 24 19" fill="none" xmlns="http://www.w3.org/2000/svg">
<path d="M3.28125 15.6045C1.69043 15.6045 0.855469 14.7959 0.855469 13.1787V3.04492C0.855469 1.42773 1.69043 0.62793 3.28125 0.62793H20.71C22.3008 0.62793 23.1357 1.42773 23.1357 3.04492V13.1787C23.1357 14.7959 22.3008 15.6045 20.71 15.6045H3.28125ZM8.95898 11.8516C8.95898 12.335 9.48633 12.5283 9.89062 12.2998L16.043 8.6875C16.5 8.42383 16.4824 7.80859 16.043 7.54492L9.89062 3.93262C9.48633 3.69531 8.95898 3.89746 8.95898 4.38965V11.8516ZM7.5 18.6719C7.06055 18.6719 6.7002 18.3115 6.7002 17.8809C6.7002 17.4414 7.06055 17.0811 7.5 17.0811H16.4912C16.9307 17.0811 17.291 17.4414 17.291 17.8809C17.291 18.3115 16.9307 18.6719 16.4912 18.6719H7.5Z" fill="url(#paint0_linear_372_3138)"/>
<defs>
<linearGradient id="paint0_linear_372_3138" x1="-1.5" y1="9.5" x2="25.5" y2="9.5" gradientUnits="userSpaceOnUse">
<stop stop-color="#4AB9FF"/>
<stop offset="1" stop-color="#0084F3"/>
</linearGradient>
</defs>
</svg>
