<svg width="23" height="19" viewBox="0 0 23 19" fill="none" xmlns="http://www.w3.org/2000/svg">
<path d="M3.15479 15.8154C1.79248 15.8154 0.966309 14.998 0.966309 13.627V3.03613C0.966309 1.66504 1.79248 0.847656 3.15479 0.847656H20.1001C21.4712 0.847656 22.2974 1.66504 22.2974 3.03613V13.627C22.2974 14.998 21.4712 15.8154 20.1001 15.8154H14.5015V17.4062H14.5366C14.9761 17.4062 15.3364 17.7666 15.3364 18.2061C15.3364 18.6367 14.9761 18.9971 14.5366 18.9971H8.72705C8.2876 18.9971 7.92725 18.6367 7.92725 18.2061C7.92725 17.7666 8.2876 17.4062 8.72705 17.4062H8.76221V15.8154H3.15479ZM3.26025 14.1367H20.0034C20.3813 14.1367 20.6099 13.8994 20.6099 13.5303V3.13281C20.6099 2.76367 20.3813 2.52637 20.0034 2.52637H3.26025C2.88232 2.52637 2.65381 2.76367 2.65381 3.13281V13.5303C2.65381 13.8994 2.88232 14.1367 3.26025 14.1367ZM9.40381 11.1396V5.53223C9.40381 5.1543 9.80811 5.00488 10.1157 5.18945L14.8267 7.95801C15.1255 8.13379 15.1343 8.5293 14.8354 8.71387L10.1157 11.4824C9.80811 11.6582 9.40381 11.5088 9.40381 11.1396Z" fill="white"/>
</svg>
