<svg width="22" height="21" viewBox="0 0 22 21" fill="none" xmlns="http://www.w3.org/2000/svg">
<path d="M0.901367 7.51465C0.453125 5.80957 1.12988 4.66699 2.84375 4.20117L16.5459 0.518555C18.2686 0.0615234 19.4463 0.685547 19.8857 2.39062L20.1494 3.41016C20.3955 4.3418 19.9561 5.13281 18.9893 5.3877L10.6836 7.61133H19.6045C20.6064 7.61133 21.2305 8.24414 21.2305 9.21973V17.5869C21.2305 19.3535 20.3076 20.2852 18.5059 20.2852H4.32031C2.52734 20.2852 1.58691 19.3623 1.58691 17.5869V10.0283L0.901367 7.51465ZM14.0938 5.31738L16.7129 4.61426L17.3193 1.99512C17.1084 2.03906 16.9062 2.08301 16.6865 2.14453L14.7178 2.68945L14.0938 5.31738ZM8.75 6.75L11.5273 6.01172L12.1514 3.375L9.37402 4.11328L8.75 6.75ZM3.56445 8.13867L6.18359 7.43555L6.79004 4.79883L4.19727 5.51074L3.56445 8.13867ZM3.99512 11.6982H6.69336L8.01172 9.29004H7.41406L5.26074 9.37793L3.99512 11.6982ZM9.36523 11.6982H12.2305L13.5488 9.29004H10.6748L9.36523 11.6982ZM14.9023 11.6982H17.6006L18.9102 9.29004H16.2119L14.9023 11.6982Z" fill="url(#paint0_linear_372_12816)"/>
<defs>
<linearGradient id="paint0_linear_372_12816" x1="-1.5" y1="11.5" x2="23.5" y2="11.5" gradientUnits="userSpaceOnUse">
<stop stop-color="#4AB9FF"/>
<stop offset="1" stop-color="#0084F3"/>
</linearGradient>
</defs>
</svg>
